<svg xmlns="http://www.w3.org/2000/svg" width="147.40" height="147.40" viewBox="0 0 147.40 147.40">
  <defs><clipPath id="bc"><circle cx="73.70" cy="73.70" r="73.70"/></clipPath></defs>
  <!-- Deep navy — strong contrast against blue stake -->
  <circle cx="73.70" cy="73.70" r="73.70" fill="#102060"/>
  <circle cx="73.70" cy="73.70" r="60" fill="#1a3080" fill-opacity="0.3"/>

  <!-- Ghost plant succulent — silvery blue-grey -->
  <!-- Outer petals — more of them for a fuller look -->
  <ellipse cx="73.70" cy="30" rx="44" ry="16" fill="#7a8eb0"/>
  <ellipse cx="73.70" cy="30" rx="44" ry="16" fill="#8aa0c0" transform="rotate(30 73.70 60)"/>
  <ellipse cx="73.70" cy="30" rx="44" ry="16" fill="#6a7ea0" transform="rotate(60 73.70 60)"/>
  <ellipse cx="73.70" cy="30" rx="44" ry="16" fill="#7a8eb0" transform="rotate(90 73.70 60)"/>
  <ellipse cx="73.70" cy="30" rx="44" ry="16" fill="#8aa0c0" transform="rotate(120 73.70 60)"/>
  <ellipse cx="73.70" cy="30" rx="44" ry="16" fill="#6a7ea0" transform="rotate(150 73.70 60)"/>
  <!-- Mid layer -->
  <ellipse cx="73.70" cy="38" rx="34" ry="12" fill="#9ab0c8" transform="rotate(15 73.70 60)"/>
  <ellipse cx="73.70" cy="38" rx="34" ry="12" fill="#8aa0b8" transform="rotate(45 73.70 60)"/>
  <ellipse cx="73.70" cy="38" rx="34" ry="12" fill="#9ab0c8" transform="rotate(75 73.70 60)"/>
  <ellipse cx="73.70" cy="38" rx="34" ry="12" fill="#8aa0b8" transform="rotate(105 73.70 60)"/>
  <!-- Centre -->
  <circle cx="73.70" cy="60" r="24" fill="#b8cce0"/>
  <circle cx="73.70" cy="60" r="15" fill="#ccdaee"/>
  <circle cx="73.70" cy="60" r="8" fill="#e4eef8"/>

  <!-- Wide surprised ghost eyes -->
  <ellipse cx="61" cy="56" rx="10" ry="11" fill="white"/>
  <circle cx="61" cy="58" r="7" fill="#08122a"/>
  <circle cx="64" cy="54" r="2.8" fill="white"/>
  <ellipse cx="86" cy="56" rx="10" ry="11" fill="white"/>
  <circle cx="86" cy="58" r="7" fill="#08122a"/>
  <circle cx="89" cy="54" r="2.8" fill="white"/>

  <!-- "Ooh" mouth -->
  <ellipse cx="73.70" cy="73" rx="7" ry="8" fill="#08122a"/>
  <ellipse cx="73.70" cy="73" rx="5" ry="6" fill="#1a2a4a"/>

  <!-- Ghost wisps and stars -->
  <ellipse cx="16" cy="40" rx="12" ry="9" fill="white" fill-opacity="0.13"/>
  <ellipse cx="130" cy="34" rx="11" ry="8" fill="white" fill-opacity="0.13"/>
  <ellipse cx="12" cy="68" rx="9" ry="7" fill="white" fill-opacity="0.1"/>
  <circle cx="24" cy="24" r="3" fill="#99bbff" fill-opacity="0.8"/>
  <circle cx="122" cy="20" r="2.5" fill="#99bbff" fill-opacity="0.75"/>
  <circle cx="16" cy="88" r="2.5" fill="#99bbff" fill-opacity="0.65"/>
  <circle cx="130" cy="80" r="3" fill="#99bbff" fill-opacity="0.7"/>
  <line x1="118" y1="88" x2="124" y2="94" stroke="#99bbff" stroke-width="2" stroke-linecap="round" opacity="0.7"/>
  <line x1="124" y1="88" x2="118" y2="94" stroke="#99bbff" stroke-width="2" stroke-linecap="round" opacity="0.7"/>

  <text x="73.70" y="122" text-anchor="middle" font-family="Georgia,serif" font-size="16" font-weight="700" fill="white" letter-spacing="1">Boo</text>
  <circle cx="73.70" cy="137" r="5" fill="#060e28"/>
  <circle cx="73.70" cy="137" r="3" fill="#88aaff" fill-opacity="0.9"/>
</svg>
