<svg xmlns="http://www.w3.org/2000/svg" width="173.86" height="117.17" viewBox="0 0 173.86 117.17">
  <rect width="173.86" height="117.17" rx="5" fill="#162e70"/>
  <rect x="7.56" y="7.56" width="158.74" height="102.05" rx="4" fill="#1e3e90" fill-opacity="0.3"/>

  <!-- Ghost plant — pale blue-grey succulent -->
  <!-- Outer petals -->
  <ellipse cx="72" cy="27" rx="38" ry="13" fill="#7888aa"/>
  <ellipse cx="72" cy="27" rx="38" ry="13" fill="#8898ba" transform="rotate(36 72 52)"/>
  <ellipse cx="72" cy="27" rx="38" ry="13" fill="#6878a0" transform="rotate(72 72 52)"/>
  <ellipse cx="72" cy="27" rx="38" ry="13" fill="#7888aa" transform="rotate(108 72 52)"/>
  <ellipse cx="72" cy="27" rx="38" ry="13" fill="#8898ba" transform="rotate(144 72 52)"/>
  <ellipse cx="72" cy="27" rx="38" ry="13" fill="#6878a0" transform="rotate(180 72 52)"/>
  <!-- Mid layer -->
  <ellipse cx="72" cy="34" rx="28" ry="10" fill="#9aabc0" transform="rotate(18 72 52)"/>
  <ellipse cx="72" cy="34" rx="28" ry="10" fill="#8a9bb0" transform="rotate(54 72 52)"/>
  <ellipse cx="72" cy="34" rx="28" ry="10" fill="#9aabc0" transform="rotate(90 72 52)"/>
  <ellipse cx="72" cy="34" rx="28" ry="10" fill="#8a9bb0" transform="rotate(126 72 52)"/>
  <!-- Centre -->
  <circle cx="72" cy="52" r="20" fill="#b8c8da"/>
  <circle cx="72" cy="52" r="13" fill="#ccdaee"/>
  <circle cx="72" cy="52" r="7" fill="#e4eef8"/>

  <!-- Wide ghost eyes — surprised -->
  <ellipse cx="62" cy="48" rx="8" ry="9" fill="white"/>
  <circle cx="62" cy="50" r="5.5" fill="#08122a"/>
  <circle cx="64.5" cy="46.5" r="2.2" fill="white"/>
  <ellipse cx="82" cy="48" rx="8" ry="9" fill="white"/>
  <circle cx="82" cy="50" r="5.5" fill="#08122a"/>
  <circle cx="84.5" cy="46.5" r="2.2" fill="white"/>

  <!-- Little "ooh" mouth -->
  <ellipse cx="72" cy="62" rx="5" ry="6" fill="#08122a"/>
  <ellipse cx="72" cy="62" rx="3.5" ry="4.5" fill="#1a2a4a"/>

  <!-- Ghost wisps floating -->
  <ellipse cx="22" cy="35" rx="9" ry="7" fill="white" fill-opacity="0.12"/>
  <ellipse cx="120" cy="30" rx="8" ry="6" fill="white" fill-opacity="0.12"/>
  <ellipse cx="18" cy="60" rx="6" ry="5" fill="white" fill-opacity="0.09"/>
  <!-- Stars -->
  <circle cx="30" cy="22" r="2.2" fill="#99bbff" fill-opacity="0.75"/>
  <circle cx="112" cy="18" r="1.8" fill="#99bbff" fill-opacity="0.7"/>
  <circle cx="20" cy="75" r="1.8" fill="#99bbff" fill-opacity="0.6"/>
  <circle cx="120" cy="68" r="2" fill="#99bbff" fill-opacity="0.65"/>
  <line x1="108" y1="72" x2="113" y2="77" stroke="#99bbff" stroke-width="1.4" stroke-linecap="round" opacity="0.65"/>
  <line x1="113" y1="72" x2="108" y2="77" stroke="#99bbff" stroke-width="1.4" stroke-linecap="round" opacity="0.65"/>

  <!-- Name right -->
  <text x="143" y="56" text-anchor="middle" font-family="Georgia,'Times New Roman',serif" font-size="14" font-weight="700" fill="white" letter-spacing="0.5">Boo</text>

  <!-- NFC dot -->
  <circle cx="143" cy="90" r="5" fill="#081030"/>
  <circle cx="143" cy="90" r="3" fill="#88aaff" fill-opacity="0.9"/>
  <path d="M135 82 Q143 75 151 82" stroke="#88aaff" stroke-width="1.5" fill="none" stroke-linecap="round" opacity="0.6"/>
  <path d="M131 78 Q143 68 155 78" stroke="#88aaff" stroke-width="1.2" fill="none" stroke-linecap="round" opacity="0.35"/>
</svg>
