<svg xmlns="http://www.w3.org/2000/svg" width="94.49" height="94.49" viewBox="0 0 94.49 94.49">
  <circle cx="47.24" cy="47.24" r="47.24" fill="#e8a020"/>
  <circle cx="47.24" cy="47.24" r="30" fill="#d49010" fill-opacity="0.3"/>
  <!-- Cactus body -->
  <rect x="33" y="24" width="29" height="40" rx="14" fill="#4aa832"/>
  <!-- Left arm -->
  <rect x="14" y="32" width="21" height="12" rx="6" fill="#4aa832"/>
  <rect x="14" y="26" width="14" height="16" rx="7" fill="#4aa832"/>
  <!-- Right arm -->
  <rect x="59" y="37" width="21" height="12" rx="6" fill="#4aa832"/>
  <rect x="65" y="31" width="14" height="16" rx="7" fill="#4aa832"/>
  <!-- Spines -->
  <line x1="31" y1="34" x2="24" y2="29" stroke="#c8f080" stroke-width="1.2"/>
  <line x1="31" y1="41" x2="24" y2="41" stroke="#c8f080" stroke-width="1.2"/>
  <line x1="63" y1="39" x2="70" y2="34" stroke="#c8f080" stroke-width="1.2"/>
  <line x1="63" y1="46" x2="70" y2="46" stroke="#c8f080" stroke-width="1.2"/>
  <line x1="47.24" y1="24" x2="47.24" y2="17" stroke="#c8f080" stroke-width="1.2"/>
  <line x1="41" y1="26" x2="38" y2="19" stroke="#c8f080" stroke-width="1.2"/>
  <line x1="54" y1="26" x2="57" y2="19" stroke="#c8f080" stroke-width="1.2"/>
  <!-- Flower -->
  <circle cx="47.24" cy="23" r="5.5" fill="#ff6b9d"/>
  <circle cx="40" cy="21" r="4" fill="#ff6b9d"/>
  <circle cx="54.5" cy="21" r="4" fill="#ff6b9d"/>
  <circle cx="47.24" cy="23" r="3.5" fill="#ffe066"/>
  <!-- Eyes - sassy -->
  <ellipse cx="40.5" cy="40" rx="4" ry="4.5" fill="white"/>
  <circle cx="40.5" cy="41" r="2.5" fill="#1a2a0a"/>
  <circle cx="42" cy="39.5" r="0.9" fill="white"/>
  <path d="M37 35.5 Q40.5 33 44 35.5" stroke="#1a2a0a" stroke-width="1.4" fill="none" stroke-linecap="round"/>
  <ellipse cx="54" cy="40" rx="4" ry="4.5" fill="white"/>
  <circle cx="54" cy="41" r="2.5" fill="#1a2a0a"/>
  <circle cx="55.5" cy="39.5" r="0.9" fill="white"/>
  <!-- Smirk -->
  <path d="M41 50 Q47.24 55 53 52" stroke="#1a2a0a" stroke-width="1.8" fill="none" stroke-linecap="round"/>
  <!-- Cheeks -->
  <ellipse cx="35" cy="48" rx="3.5" ry="2" fill="#f0c060" fill-opacity="0.7"/>
  <ellipse cx="59.5" cy="48" rx="3.5" ry="2" fill="#f0c060" fill-opacity="0.7"/>
  <!-- Name -->
  <text x="47.24" y="76" text-anchor="middle" font-family="Georgia, serif" font-size="10" font-weight="700" fill="white" letter-spacing="1.5">Cleo</text>
  <!-- NFC dot -->
  <circle cx="47.24" cy="86" r="4" fill="#b87a10"/>
  <circle cx="47.24" cy="86" r="2" fill="#ffd580" fill-opacity="0.9"/>
</svg>
