<svg xmlns="http://www.w3.org/2000/svg" width="147.40" height="147.40" viewBox="0 0 147.40 147.40">
  <defs><clipPath id="cc"><circle cx="73.70" cy="73.70" r="73.70"/></clipPath></defs>
  <circle cx="73.70" cy="73.70" r="73.70" fill="#c88a08"/>
  <circle cx="73.70" cy="73.70" r="60" fill="#e0a018" fill-opacity="0.35"/>

  <!-- Cactus body -->
  <rect x="48" y="28" width="52" height="78" rx="26" fill="#3aaa28"/>
  <!-- Left arm -->
  <rect x="10" y="44" width="44" height="22" rx="11" fill="#3aaa28"/>
  <rect x="10" y="30" width="28" height="30" rx="14" fill="#3aaa28"/>
  <!-- Right arm -->
  <rect x="93" y="50" width="44" height="22" rx="11" fill="#3aaa28"/>
  <rect x="109" y="36" width="28" height="30" rx="14" fill="#3aaa28"/>

  <!-- Spines -->
  <line x1="47" y1="50" x2="31" y2="40" stroke="#c8ff70" stroke-width="2.2"/>
  <line x1="47" y1="64" x2="29" y2="64" stroke="#c8ff70" stroke-width="2.2"/>
  <line x1="100" y1="57" x2="116" y2="47" stroke="#c8ff70" stroke-width="2.2"/>
  <line x1="100" y1="71" x2="118" y2="71" stroke="#c8ff70" stroke-width="2.2"/>
  <line x1="73.70" y1="28" x2="73.70" y2="14" stroke="#c8ff70" stroke-width="2.2"/>
  <line x1="62" y1="31" x2="56" y2="17" stroke="#c8ff70" stroke-width="2.2"/>
  <line x1="85" y1="31" x2="91" y2="17" stroke="#c8ff70" stroke-width="2.2"/>

  <!-- Flower crown -->
  <circle cx="73.70" cy="28" r="13" fill="#ff4488"/>
  <circle cx="57" cy="22" r="10" fill="#ff4488"/>
  <circle cx="90" cy="22" r="10" fill="#ff4488"/>
  <circle cx="46" cy="30" r="8" fill="#ff88bb"/>
  <circle cx="101" cy="30" r="8" fill="#ff88bb"/>
  <circle cx="73.70" cy="28" r="8.5" fill="#ffd830"/>

  <!-- Sassy eyes with raised brow -->
  <ellipse cx="60" cy="62" rx="9.5" ry="10.5" fill="white"/>
  <circle cx="60" cy="64" r="6.5" fill="#182208"/>
  <circle cx="63" cy="60" r="2.5" fill="white"/>
  <path d="M51 51 Q60 46 69 51" stroke="#182208" stroke-width="2.8" fill="none" stroke-linecap="round"/>
  <ellipse cx="88" cy="62" rx="9.5" ry="10.5" fill="white"/>
  <circle cx="88" cy="64" r="6.5" fill="#182208"/>
  <circle cx="91" cy="60" r="2.5" fill="white"/>

  <!-- Smirk -->
  <path d="M59 80 Q75 92 89 84" stroke="#182208" stroke-width="3" fill="none" stroke-linecap="round"/>

  <!-- Cheeks -->
  <ellipse cx="43" cy="77" rx="10" ry="6" fill="#f0b820" fill-opacity="0.65"/>
  <ellipse cx="104" cy="77" rx="10" ry="6" fill="#f0b820" fill-opacity="0.65"/>

  <text x="73.70" y="122" text-anchor="middle" font-family="Georgia,serif" font-size="16" font-weight="700" fill="white" letter-spacing="1">Cleo</text>
  <circle cx="73.70" cy="137" r="5" fill="#7a5000"/>
  <circle cx="73.70" cy="137" r="3" fill="#ffe080" fill-opacity="0.9"/>
</svg>
