<!-- AquaTag print-ready sticker | 35mm round + 2mm bleed
     Canvas: 147.40x147.40px = 39mm at 96dpi
     Fonts: OUTLINED as vector paths (Fraunces Bold 700)
     Seritag Sheet Express | 35mm Round | NTAG213 blank | crystal matt -->
<svg xmlns="http://www.w3.org/2000/svg" width="147.40" height="147.40" viewBox="0 0 100 100">
  <circle cx="50" cy="50" r="50" fill="#f0dc5a"/>
  <g>
    <circle cx="50" cy="50" r="32" fill="#d6b838" fill-opacity="0.28"/>
    <rect x="36" y="28" width="28" height="40" rx="14" fill="#4aa832"/>
    <rect x="18" y="36" width="20" height="12" rx="6" fill="#4aa832"/>
    <rect x="18" y="30" width="13" height="16" rx="6.5" fill="#4aa832"/>
    <rect x="62" y="41" width="20" height="12" rx="6" fill="#4aa832"/>
    <rect x="68" y="35" width="13" height="16" rx="6.5" fill="#4aa832"/>
    <line x1="34" y1="36" x2="28" y2="32" stroke="#c8f080" stroke-width="1"/>
    <line x1="34" y1="42" x2="28" y2="42" stroke="#c8f080" stroke-width="1"/>
    <line x1="66" y1="42" x2="72" y2="38" stroke="#c8f080" stroke-width="1"/>
    <line x1="66" y1="48" x2="72" y2="48" stroke="#c8f080" stroke-width="1"/>
    <line x1="50" y1="28" x2="50" y2="22" stroke="#c8f080" stroke-width="1"/>
    <line x1="44" y1="30" x2="41" y2="24" stroke="#c8f080" stroke-width="1"/>
    <line x1="56" y1="30" x2="59" y2="24" stroke="#c8f080" stroke-width="1"/>
    <circle cx="50" cy="26" r="5.5" fill="#ff6b9d"/>
    <circle cx="43" cy="24" r="4" fill="#ff6b9d"/>
    <circle cx="57" cy="24" r="4" fill="#ff6b9d"/>
    <circle cx="50" cy="26" r="3.2" fill="#ffe066"/>
    <ellipse cx="43.5" cy="43" rx="4" ry="4.5" fill="white"/>
    <circle cx="43.5" cy="44" r="2.5" fill="#1a2a0a"/>
    <circle cx="45" cy="42.5" r="0.9" fill="white"/>
    <ellipse cx="57" cy="43" rx="4" ry="4.5" fill="white"/>
    <circle cx="57" cy="44" r="2.5" fill="#1a2a0a"/>
    <circle cx="58.5" cy="42.5" r="0.9" fill="white"/>
    <path d="M40 38.5 Q43.5 36 47 38.5" stroke="#1a2a0a" stroke-width="1.3" fill="none" stroke-linecap="round"/>
    <path d="M44 53 Q50 58 56 55" stroke="#1a2a0a" stroke-width="1.8" fill="none" stroke-linecap="round"/>
    <ellipse cx="38" cy="51" rx="3.5" ry="2" fill="#f0c060" fill-opacity="0.7"/>
    <ellipse cx="62" cy="51" rx="3.5" ry="2" fill="#f0c060" fill-opacity="0.7"/>
  </g>
  <path d="M42.63,78.07Q42.63,78.44 42.43,78.82Q42.23,79.19 41.85,79.51Q41.48,79.82 40.94,80.01Q40.41,80.19 39.74,80.19Q38.64,80.19 37.84,79.73Q37.04,79.26 36.60,78.44Q36.16,77.61 36.16,76.54Q36.16,75.73 36.42,75.06Q36.69,74.38 37.15,73.87Q37.62,73.37 38.24,73.09Q38.87,72.81 39.61,72.81Q40.09,72.81 40.39,72.90Q40.69,72.99 40.87,73.08Q41.05,73.17 41.16,73.17Q41.29,73.17 41.37,73.09Q41.45,73.01 41.53,72.93Q41.62,72.85 41.76,72.85Q41.87,72.85 41.94,72.92Q42.01,72.98 42.05,73.14L42.57,74.90Q42.61,75.03 42.54,75.14Q42.47,75.24 42.34,75.28Q42.20,75.31 42.08,75.25Q41.97,75.19 41.90,75.05Q41.63,74.45 41.32,74.11Q41.00,73.76 40.65,73.61Q40.29,73.47 39.90,73.47Q39.49,73.47 39.16,73.66Q38.83,73.85 38.59,74.20Q38.36,74.56 38.23,75.05Q38.11,75.55 38.11,76.17Q38.11,77.16 38.39,77.82Q38.67,78.49 39.17,78.83Q39.67,79.17 40.31,79.17Q40.91,79.17 41.37,78.88Q41.84,78.58 42.12,78.03Q42.19,77.89 42.27,77.85Q42.35,77.81 42.45,77.83Q42.55,77.84 42.59,77.90Q42.63,77.97 42.63,78.07Z M46.56,73.59Q46.20,73.70 46.14,73.77Q46.07,73.84 46.07,73.96Q46.07,79.23 46.18,79.32Q46.28,79.40 46.48,79.40Q47.37,79.40 47.57,79.33Q47.77,79.25 47.93,79.05Q48.10,78.85 48.28,78.47L48.60,77.77Q48.67,77.62 48.78,77.57Q48.89,77.52 49.03,77.56Q49.17,77.60 49.23,77.70Q49.29,77.80 49.24,77.96L48.77,79.73Q48.70,79.97 48.60,80.07Q48.50,80.18 48.30,80.18Q48.19,80.18 48.07,80.14Q47.96,80.09 47.82,80.05Q47.67,80.00 47.47,80.00Q43.59,80.00 43.51,79.92Q43.42,79.84 43.42,79.72Q43.42,79.50 43.65,79.41L43.89,79.34Q44.02,79.30 44.08,79.23Q44.14,79.16 44.14,79.04Q44.14,73.84 44.08,73.77Q44.02,73.70 43.89,73.66L43.65,73.59Q43.42,73.50 43.42,73.28Q43.42,73.15 43.51,73.08Q43.59,73.00 43.78,73.00Q46.62,73.00 46.71,73.08Q46.80,73.15 46.80,73.28Q46.80,73.50 46.56,73.59Z M51.84,76.17Q53.59,76.17 53.73,76.05Q53.86,75.92 53.95,75.57Q53.98,75.42 54.06,75.36Q54.14,75.30 54.24,75.29Q54.47,75.28 54.53,75.54L54.92,77.08Q54.96,77.23 54.92,77.33Q54.88,77.42 54.76,77.45Q54.64,77.50 54.54,77.47Q54.43,77.44 54.36,77.33Q54.21,77.09 54.08,76.97Q53.96,76.84 53.80,76.80Q53.65,76.75 53.41,76.75ZM49.90,73.28Q49.90,73.15 49.99,73.08Q50.08,73.00 50.27,73.00Q54.27,73.00 54.40,72.95Q54.53,72.91 54.65,72.86Q54.77,72.81 54.92,72.81Q55.10,72.81 55.20,72.92Q55.29,73.02 55.36,73.25L55.78,74.67Q55.82,74.83 55.78,74.92Q55.73,75.03 55.60,75.07Q55.45,75.12 55.33,75.06Q55.21,75.01 55.13,74.86Q54.93,74.47 54.75,74.22Q54.57,73.97 54.39,73.84Q54.21,73.70 54.01,73.65Q53.80,73.60 53.54,73.60Q52.56,79.12 52.70,79.26Q52.85,79.40 53.13,79.40Q54.05,79.40 54.32,79.28Q54.58,79.17 54.83,78.84Q55.08,78.52 55.36,77.90Q55.43,77.77 55.53,77.72Q55.64,77.67 55.77,77.69Q55.92,77.72 55.98,77.82Q56.05,77.93 56.00,78.09L55.56,79.73Q55.49,79.96 55.39,80.07Q55.29,80.18 55.09,80.18Q54.96,80.18 54.84,80.14Q54.73,80.09 54.59,80.05Q54.46,80.00 54.26,80.00Q50.08,80.00 49.99,79.92Q49.90,79.84 49.90,79.72Q49.90,79.50 50.14,79.41L50.38,79.34Q50.50,79.30 50.57,79.23Q50.63,79.16 50.63,79.04Q50.63,73.84 50.57,73.77Q50.50,73.70 50.38,73.66L50.14,73.59Q49.90,73.50 49.90,73.28Z M60.16,72.81Q61.00,72.81 61.68,73.08Q62.35,73.35 62.84,73.85Q63.31,74.34 63.57,75.03Q63.83,75.71 63.83,76.55Q63.83,77.32 63.57,77.98Q63.32,78.65 62.84,79.14Q62.37,79.64 61.70,79.92Q61.03,80.19 60.20,80.19Q59.35,80.19 58.68,79.92Q58.01,79.66 57.52,79.16Q57.05,78.66 56.79,77.98Q56.53,77.30 56.53,76.46Q56.53,75.69 56.78,75.02Q57.04,74.36 57.51,73.86Q57.98,73.36 58.66,73.09Q59.33,72.81 60.16,72.81ZM61.84,77.68Q61.84,77.01 61.73,76.38Q61.61,75.75 61.41,75.22Q61.20,74.68 60.94,74.28Q60.67,73.88 60.37,73.65Q60.07,73.42 59.76,73.42Q59.38,73.42 59.10,73.64Q58.83,73.86 58.68,74.29Q58.53,74.71 58.53,75.33Q58.53,76.00 58.65,76.62Q58.77,77.25 58.97,77.79Q59.16,78.33 59.43,78.73Q59.70,79.14 60.00,79.36Q60.30,79.59 60.62,79.59Q61.01,79.59 61.28,79.37Q61.55,79.14 61.70,78.72Q61.84,78.30 61.84,77.68Z" fill="#2a2208" fill-rule="nonzero"/>
  <circle cx="50" cy="90" r="3.5" fill="#a88810"/>
  <circle cx="50" cy="90" r="1.8" fill="#fff09a" fill-opacity="0.9"/>
  <!-- Cut line — non-printing -->
  <circle cx="50" cy="50" r="44.85" fill="none" stroke="#ff0000" stroke-width="0.25" stroke-dasharray="1.5,1.5" opacity="0.5"/>
</svg>
