<!-- AquaTag print-ready sticker | 35mm round + 2mm bleed
     Canvas: 147.40x147.40px = 39mm at 96dpi
     Fonts: OUTLINED as vector paths (Fraunces Bold 700)
     Seritag Sheet Express | 35mm Round | NTAG213 blank | crystal matt -->
<svg xmlns="http://www.w3.org/2000/svg" width="147.40" height="147.40" viewBox="0 0 100 100">
  <circle cx="50" cy="50" r="50" fill="#2db489"/>
  <g>
    <circle cx="50" cy="50" r="34" fill="#9ee5c4" fill-opacity="0.40"/>
    <ellipse cx="50" cy="39" rx="23" ry="26" fill="#0d5c3f"/>
    <line x1="50" y1="14" x2="50" y2="62" stroke="#6fd6b2" stroke-width="1.2" stroke-linecap="round"/>
    <path d="M32 30 Q22 35 24 46" stroke="#6fd6b2" stroke-width="2.6" fill="none" stroke-linecap="round"/>
    <path d="M30 43 Q20 48 23 56" stroke="#6fd6b2" stroke-width="2.6" fill="none" stroke-linecap="round"/>
    <path d="M68 30 Q78 35 76 46" stroke="#6fd6b2" stroke-width="2.6" fill="none" stroke-linecap="round"/>
    <path d="M70 43 Q80 48 77 56" stroke="#6fd6b2" stroke-width="2.6" fill="none" stroke-linecap="round"/>
    <ellipse cx="42" cy="37" rx="4.5" ry="5.5" fill="white"/>
    <circle cx="42" cy="38" r="2.8" fill="#0d3a2a"/>
    <circle cx="43.2" cy="36.5" r="1" fill="white"/>
    <ellipse cx="58" cy="37" rx="4.5" ry="5.5" fill="white"/>
    <circle cx="58" cy="38" r="2.8" fill="#0d3a2a"/>
    <circle cx="59.2" cy="36.5" r="1" fill="white"/>
    <path d="M43 47 Q50 52 57 47" stroke="#0d3a2a" stroke-width="1.8" fill="none" stroke-linecap="round"/>
    <ellipse cx="36" cy="46" rx="4" ry="2.5" fill="#3fc598" fill-opacity="0.8"/>
    <ellipse cx="64" cy="46" rx="4" ry="2.5" fill="#3fc598" fill-opacity="0.8"/>
  </g>
  <path d="M35.38,77.84Q36.57,73.24 36.73,73.12Q36.89,73.00 37.17,73.00Q39.05,73.00 39.14,73.08Q39.23,73.15 39.23,73.28Q39.23,73.39 39.17,73.47Q39.11,73.55 39.00,73.59L38.77,73.66Q38.61,73.71 38.55,73.80Q38.50,73.88 38.51,74.07L38.86,78.97Q38.87,79.16 38.93,79.23Q38.98,79.30 39.12,79.34L39.34,79.41Q39.45,79.44 39.50,79.52Q39.56,79.59 39.56,79.70Q39.56,79.83 39.47,79.92Q39.38,80.00 39.20,80.00Q36.40,80.00 36.31,79.92Q36.22,79.84 36.22,79.72Q36.22,79.61 36.27,79.53Q36.32,79.45 36.46,79.41L36.68,79.34Q36.84,79.29 36.90,79.21Q36.96,79.14 36.95,78.97L36.55,73.86L37.11,73.82L35.04,79.30Q34.92,79.60 34.80,79.69Q34.68,79.78 34.52,79.78Q34.40,79.78 34.30,79.75Q34.20,79.72 34.11,79.61Q34.03,79.50 33.93,79.27L31.82,73.99L32.35,73.86L31.94,78.81Q31.93,79.03 32.05,79.16Q32.16,79.28 32.35,79.36L32.55,79.44Q32.62,79.48 32.67,79.55Q32.71,79.61 32.71,79.70Q32.71,79.84 32.63,79.92Q32.54,80.00 32.35,80.00Q30.63,80.00 30.55,79.92Q30.46,79.84 30.46,79.72Q30.46,79.59 30.53,79.52Q30.60,79.45 30.71,79.40L30.87,79.34Q31.03,79.28 31.14,79.15Q31.25,79.03 31.27,78.81L31.65,74.23Q31.67,73.97 31.61,73.84Q31.55,73.71 31.38,73.66L31.16,73.59Q31.04,73.55 30.98,73.47Q30.92,73.40 30.92,73.28Q30.92,73.00 31.29,73.00Q33.23,73.00 33.39,73.11Q33.55,73.22 33.67,73.54Z M43.79,72.81Q44.63,72.81 45.31,73.08Q45.98,73.35 46.47,73.85Q46.95,74.34 47.20,75.03Q47.46,75.71 47.46,76.55Q47.46,77.32 47.20,77.98Q46.95,78.65 46.48,79.14Q46.00,79.64 45.33,79.92Q44.66,80.19 43.83,80.19Q42.98,80.19 42.31,79.92Q41.64,79.66 41.16,79.16Q40.68,78.66 40.42,77.98Q40.16,77.30 40.16,76.46Q40.16,75.69 40.41,75.02Q40.67,74.36 41.14,73.86Q41.62,73.36 42.29,73.09Q42.96,72.81 43.79,72.81ZM45.47,77.68Q45.47,77.01 45.36,76.38Q45.24,75.75 45.04,75.22Q44.84,74.68 44.57,74.28Q44.30,73.88 44.00,73.65Q43.70,73.42 43.39,73.42Q43.01,73.42 42.73,73.64Q42.46,73.86 42.31,74.29Q42.16,74.71 42.16,75.33Q42.16,76.00 42.28,76.62Q42.40,77.25 42.59,77.79Q42.80,78.33 43.06,78.73Q43.33,79.14 43.63,79.36Q43.93,79.59 44.25,79.59Q44.64,79.59 44.91,79.37Q45.18,79.14 45.33,78.72Q45.47,78.30 45.47,77.68Z M50.53,79.72Q50.53,79.84 50.44,79.92Q50.36,80.00 50.17,80.00Q48.37,80.00 48.28,79.92Q48.19,79.84 48.19,79.72Q48.19,79.50 48.45,79.40L48.62,79.34Q48.84,79.25 48.94,79.12Q49.03,79.00 49.03,78.74Q49.03,74.52 48.99,74.42Q48.95,74.31 48.82,74.14L48.41,73.61Q48.32,73.48 48.28,73.41Q48.25,73.34 48.25,73.26Q48.25,73.14 48.33,73.07Q48.41,73.00 48.55,73.00Q50.15,73.00 50.26,73.06Q50.38,73.12 50.49,73.28L54.05,78.14L53.78,78.87Q53.78,74.00 53.70,73.88Q53.62,73.76 53.38,73.66L53.21,73.60Q52.95,73.48 52.95,73.28Q52.95,73.15 53.04,73.08Q53.13,73.00 53.31,73.00Q55.11,73.00 55.20,73.08Q55.29,73.15 55.29,73.28Q55.29,73.49 55.04,73.60L54.87,73.66Q54.64,73.75 54.55,73.87Q54.46,74.00 54.46,74.26Q54.46,78.56 54.48,78.69Q54.52,78.82 54.59,78.93L54.91,79.35Q55.02,79.50 55.04,79.57Q55.07,79.64 55.07,79.72Q55.07,79.85 54.98,79.92Q54.90,80.00 54.75,80.00Q52.82,80.00 52.82,79.78Q52.82,79.69 52.79,79.61Q52.75,79.53 52.59,79.32L49.11,74.55L49.70,74.17Q49.70,78.99 49.78,79.11Q49.87,79.23 50.11,79.34L50.28,79.40Q50.53,79.51 50.53,79.72Z M57.41,73.00Q61.07,73.00 61.21,72.96Q61.35,72.92 61.46,72.87Q61.57,72.83 61.69,72.83Q61.89,72.83 61.99,72.93Q62.09,73.03 62.16,73.26L62.48,74.91Q62.52,75.08 62.45,75.18Q62.40,75.28 62.25,75.31Q62.12,75.34 62.01,75.29Q61.91,75.25 61.84,75.10Q61.55,74.50 61.36,74.19Q61.16,73.88 60.97,73.75Q60.78,73.63 60.54,73.63Q60.10,79.16 60.16,79.23Q60.23,79.30 60.36,79.34L60.59,79.41Q60.83,79.50 60.83,79.72Q60.83,80.00 60.47,80.00Q57.62,80.00 57.53,79.92Q57.45,79.84 57.45,79.72Q57.45,79.50 57.68,79.41L57.91,79.34Q58.05,79.30 58.11,79.23Q58.17,79.16 58.17,79.04Q57.50,73.63 57.30,73.75Q57.12,73.88 56.91,74.19Q56.72,74.50 56.44,75.10Q56.37,75.25 56.26,75.29Q56.16,75.34 56.02,75.31Q55.88,75.28 55.82,75.18Q55.76,75.08 55.79,74.91L56.12,73.26Q56.18,73.03 56.28,72.93Q56.38,72.83 56.58,72.83Q56.70,72.83 56.81,72.87Q56.92,72.92 57.06,72.96Q57.20,73.00 57.41,73.00Z M67.14,77.80Q63.47,73.81 63.40,73.74Q63.33,73.67 63.22,73.62L63.07,73.57Q62.96,73.53 62.91,73.45Q62.86,73.38 62.86,73.28Q62.86,73.15 62.95,73.08Q63.04,73.00 63.23,73.00Q66.03,73.00 66.12,73.08Q66.22,73.15 66.22,73.28Q66.22,73.52 65.97,73.58L65.78,73.63Q65.61,73.68 65.58,73.77Q65.55,73.86 65.64,74.06L67.11,77.30L66.48,77.61L68.08,74.28Q68.19,74.06 68.14,73.88Q68.09,73.71 67.84,73.62L67.66,73.57Q67.57,73.53 67.52,73.46Q67.46,73.39 67.46,73.28Q67.46,73.15 67.55,73.08Q67.64,73.00 67.83,73.00Q69.48,73.00 69.57,73.08Q69.66,73.15 69.66,73.28Q69.66,73.38 69.62,73.44Q69.57,73.51 69.47,73.56L69.39,73.61Q69.28,73.64 69.20,73.72Q69.12,73.80 69.02,73.94Q68.93,74.08 68.80,74.35ZM65.37,77.42Q67.30,79.16 67.36,79.23Q67.42,79.30 67.55,79.34L67.78,79.41Q68.02,79.50 68.02,79.72Q68.02,79.84 67.93,79.92Q67.84,80.00 67.66,80.00Q64.81,80.00 64.73,79.92Q64.64,79.84 64.64,79.72Q64.64,79.50 64.88,79.41L65.11,79.34Q65.24,79.30 65.30,79.23Q65.37,79.16 65.37,79.04Z" fill="#f4fff9" fill-rule="nonzero"/>
  <circle cx="50" cy="90" r="3.5" fill="#1a8466"/>
  <circle cx="50" cy="90" r="1.8" fill="#6fd6b2" fill-opacity="0.9"/>
  <!-- Cut line — non-printing -->
  <circle cx="50" cy="50" r="44.85" fill="none" stroke="#ff0000" stroke-width="0.25" stroke-dasharray="1.5,1.5" opacity="0.5"/>
</svg>
