<svg xmlns="http://www.w3.org/2000/svg" width="147.40" height="147.40" viewBox="0 0 147.40 147.40">
  <defs><clipPath id="oc"><circle cx="73.70" cy="73.70" r="73.70"/></clipPath></defs>
  <!-- Deeper purple — more contrast against teal stake -->
  <circle cx="73.70" cy="73.70" r="73.70" fill="#4a1890"/>
  <circle cx="73.70" cy="73.70" r="60" fill="#6830b0" fill-opacity="0.3"/>

  <!-- Stem -->
  <path d="M73.70 108 Q66 82 56 56" stroke="#4a8820" stroke-width="5.5" fill="none" stroke-linecap="round"/>
  <!-- Leaves -->
  <ellipse cx="36" cy="96" rx="26" ry="11" fill="#4a8820" transform="rotate(-28 36 96)"/>
  <ellipse cx="108" cy="88" rx="22" ry="9" fill="#3a7818" transform="rotate(24 108 88)"/>

  <!-- Orchid 5 petals — larger -->
  <ellipse cx="73.70" cy="42" rx="18" ry="28" fill="#c058e8" opacity="0.95"/>
  <ellipse cx="73.70" cy="42" rx="18" ry="28" fill="#c058e8" opacity="0.95" transform="rotate(72 73.70 42)"/>
  <ellipse cx="73.70" cy="42" rx="18" ry="28" fill="#aa48d0" opacity="0.95" transform="rotate(144 73.70 42)"/>
  <ellipse cx="73.70" cy="42" rx="18" ry="28" fill="#c058e8" opacity="0.95" transform="rotate(216 73.70 42)"/>
  <ellipse cx="73.70" cy="42" rx="18" ry="28" fill="#aa48d0" opacity="0.95" transform="rotate(288 73.70 42)"/>
  <!-- Centre -->
  <circle cx="73.70" cy="42" r="18" fill="#ffe4f8"/>
  <circle cx="73.70" cy="42" r="11" fill="#ff80c0"/>
  <ellipse cx="73.70" cy="50" rx="8" ry="5" fill="#ff58a8"/>

  <!-- Face -->
  <ellipse cx="65" cy="37" rx="6.5" ry="7.5" fill="white"/>
  <circle cx="65" cy="39" r="4.5" fill="#380858"/>
  <circle cx="67.5" cy="35.5" r="1.8" fill="white"/>
  <ellipse cx="82" cy="37" rx="6.5" ry="7.5" fill="white"/>
  <circle cx="82" cy="39" r="4.5" fill="#380858"/>
  <circle cx="84.5" cy="35.5" r="1.8" fill="white"/>
  <path d="M63 47 Q73.70 54 84 47" stroke="#380858" stroke-width="2.5" fill="none" stroke-linecap="round"/>

  <!-- Sparkles — larger and more visible -->
  <line x1="18" y1="22" x2="26" y2="30" stroke="#ffccff" stroke-width="2.5" stroke-linecap="round"/>
  <line x1="26" y1="22" x2="18" y2="30" stroke="#ffccff" stroke-width="2.5" stroke-linecap="round"/>
  <line x1="120" y1="16" x2="128" y2="24" stroke="#ffccff" stroke-width="2.5" stroke-linecap="round"/>
  <line x1="128" y1="16" x2="120" y2="24" stroke="#ffccff" stroke-width="2.5" stroke-linecap="round"/>
  <circle cx="132" cy="44" r="4" fill="#ffccff"/>
  <circle cx="16" cy="52" r="3.5" fill="#ffccff" fill-opacity="0.85"/>
  <circle cx="128" cy="72" r="3" fill="#ffccff" fill-opacity="0.7"/>

  <text x="73.70" y="122" text-anchor="middle" font-family="Georgia,serif" font-size="16" font-weight="700" fill="white" letter-spacing="1">Ollie</text>
  <circle cx="73.70" cy="137" r="5" fill="#300660"/>
  <circle cx="73.70" cy="137" r="3" fill="#d890f8" fill-opacity="0.9"/>
</svg>
