<!-- AquaTag print-ready sticker | 35mm round + 2mm bleed
     Canvas: 147.40x147.40px = 39mm at 96dpi
     Fonts: OUTLINED as vector paths (Fraunces Bold 700)
     Seritag Sheet Express | 35mm Round | NTAG213 blank | crystal matt -->
<svg xmlns="http://www.w3.org/2000/svg" width="147.40" height="147.40" viewBox="0 0 100 100">
  <circle cx="50" cy="50" r="50" fill="#e8388a"/>
  <g>
    <circle cx="50" cy="50" r="32" fill="#9a1858" fill-opacity="0.32"/>
    <ellipse cx="34" cy="58" rx="12" ry="6" fill="#5a9a3a" transform="rotate(-20 34 58)"/>
    <ellipse cx="63" cy="54" rx="10" ry="5" fill="#4a8a2a" transform="rotate(15 63 54)"/>
    <ellipse cx="50" cy="24" rx="9" ry="13" fill="#ff7ab0"/>
    <ellipse cx="50" cy="24" rx="9" ry="13" fill="#ff7ab0" transform="rotate(72 50 24)"/>
    <ellipse cx="50" cy="24" rx="9" ry="13" fill="#f060a0" transform="rotate(144 50 24)"/>
    <ellipse cx="50" cy="24" rx="9" ry="13" fill="#ff7ab0" transform="rotate(216 50 24)"/>
    <ellipse cx="50" cy="24" rx="9" ry="13" fill="#f060a0" transform="rotate(288 50 24)"/>
    <circle cx="50" cy="24" r="9" fill="#fff0f5"/>
    <circle cx="50" cy="24" r="5" fill="#ffc850"/>
    <ellipse cx="47" cy="22" rx="2.8" ry="3.2" fill="white"/>
    <circle cx="47" cy="23" r="1.8" fill="#4a0e30"/>
    <circle cx="48" cy="21.5" r="0.7" fill="white"/>
    <ellipse cx="53.5" cy="22" rx="2.8" ry="3.2" fill="white"/>
    <circle cx="53.5" cy="23" r="1.8" fill="#4a0e30"/>
    <circle cx="54.5" cy="21.5" r="0.7" fill="white"/>
    <path d="M46 27 Q50 31 54.5 27" stroke="#4a0e30" stroke-width="1.4" fill="none" stroke-linecap="round"/>
    <line x1="20" y1="20" x2="24" y2="24" stroke="#ffd0e4" stroke-width="1.4" stroke-linecap="round"/>
    <line x1="24" y1="20" x2="20" y2="24" stroke="#ffd0e4" stroke-width="1.4" stroke-linecap="round"/>
    <line x1="74" y1="16" x2="78" y2="20" stroke="#ffd0e4" stroke-width="1.4" stroke-linecap="round"/>
    <line x1="78" y1="16" x2="74" y2="20" stroke="#ffd0e4" stroke-width="1.4" stroke-linecap="round"/>
    <circle cx="80" cy="32" r="2" fill="#ffd0e4"/>
  </g>
  <path d="M37.94,72.81Q38.79,72.81 39.47,73.08Q40.14,73.35 40.62,73.85Q41.10,74.34 41.36,75.03Q41.61,75.71 41.61,76.55Q41.61,77.32 41.36,77.98Q41.11,78.65 40.63,79.14Q40.16,79.64 39.49,79.92Q38.82,80.19 37.98,80.19Q37.14,80.19 36.47,79.92Q35.79,79.66 35.31,79.16Q34.83,78.66 34.58,77.98Q34.32,77.30 34.32,76.46Q34.32,75.69 34.57,75.02Q34.83,74.36 35.30,73.86Q35.77,73.36 36.44,73.09Q37.11,72.81 37.94,72.81ZM39.63,77.68Q39.63,77.01 39.51,76.38Q39.40,75.75 39.20,75.22Q38.99,74.68 38.73,74.28Q38.46,73.88 38.16,73.65Q37.86,73.42 37.54,73.42Q37.16,73.42 36.89,73.64Q36.61,73.86 36.47,74.29Q36.32,74.71 36.32,75.33Q36.32,76.00 36.44,76.62Q36.55,77.25 36.75,77.79Q36.95,78.33 37.22,78.73Q37.48,79.14 37.79,79.36Q38.09,79.59 38.40,79.59Q38.79,79.59 39.06,79.37Q39.34,79.14 39.48,78.72Q39.63,78.30 39.63,77.68Z M45.59,73.59Q45.23,73.70 45.17,73.77Q45.10,73.84 45.10,73.96Q45.10,79.23 45.21,79.32Q45.31,79.40 45.51,79.40Q46.40,79.40 46.59,79.33Q46.79,79.25 46.96,79.05Q47.13,78.85 47.31,78.47L47.63,77.77Q47.70,77.62 47.81,77.57Q47.92,77.52 48.06,77.56Q48.20,77.60 48.26,77.70Q48.32,77.80 48.27,77.96L47.80,79.73Q47.73,79.97 47.63,80.07Q47.53,80.18 47.33,80.18Q47.22,80.18 47.10,80.14Q46.99,80.09 46.84,80.05Q46.70,80.00 46.50,80.00Q42.62,80.00 42.54,79.92Q42.45,79.84 42.45,79.72Q42.45,79.50 42.68,79.41L42.92,79.34Q43.05,79.30 43.11,79.23Q43.17,79.16 43.17,79.04Q43.17,73.84 43.11,73.77Q43.05,73.70 42.92,73.66L42.68,73.59Q42.45,73.50 42.45,73.28Q42.45,73.15 42.54,73.08Q42.62,73.00 42.81,73.00Q45.65,73.00 45.74,73.08Q45.83,73.15 45.83,73.28Q45.83,73.50 45.59,73.59Z M52.08,73.59Q51.72,73.70 51.65,73.77Q51.59,73.84 51.59,73.96Q51.59,79.23 51.69,79.32Q51.80,79.40 52.00,79.40Q52.88,79.40 53.08,79.33Q53.28,79.25 53.45,79.05Q53.62,78.85 53.79,78.47L54.12,77.77Q54.19,77.62 54.30,77.57Q54.40,77.52 54.54,77.56Q54.68,77.60 54.74,77.70Q54.80,77.80 54.76,77.96L54.28,79.73Q54.21,79.97 54.11,80.07Q54.01,80.18 53.82,80.18Q53.70,80.18 53.59,80.14Q53.47,80.09 53.33,80.05Q53.19,80.00 52.98,80.00Q49.11,80.00 49.02,79.92Q48.93,79.84 48.93,79.72Q48.93,79.50 49.16,79.41L49.40,79.34Q49.53,79.30 49.59,79.23Q49.66,79.16 49.66,79.04Q49.66,73.84 49.59,73.77Q49.53,73.70 49.40,73.66L49.16,73.59Q48.93,73.50 48.93,73.28Q48.93,73.15 49.02,73.08Q49.11,73.00 49.29,73.00Q52.14,73.00 52.23,73.08Q52.31,73.15 52.31,73.28Q52.31,73.50 52.08,73.59Z M58.07,79.04Q58.07,79.16 58.14,79.23Q58.20,79.30 58.32,79.34L58.56,79.41Q58.80,79.50 58.80,79.72Q58.80,79.84 58.71,79.92Q58.62,80.00 58.43,80.00Q55.59,80.00 55.51,79.92Q55.42,79.84 55.42,79.72Q55.42,79.50 55.65,79.41L55.89,79.34Q56.02,79.30 56.08,79.23Q56.14,79.16 56.14,79.04Q56.14,73.84 56.08,73.77Q56.02,73.70 55.89,73.66L55.65,73.59Q55.42,73.50 55.42,73.28Q55.42,73.15 55.51,73.08Q55.59,73.00 55.78,73.00Q58.62,73.00 58.71,73.08Q58.80,73.15 58.80,73.28Q58.80,73.50 58.56,73.59L58.32,73.66Q58.20,73.70 58.14,73.77Q58.07,73.84 58.07,73.96Z M61.69,76.17Q63.45,76.17 63.58,76.05Q63.71,75.92 63.80,75.57Q63.84,75.42 63.92,75.36Q63.99,75.30 64.10,75.29Q64.33,75.28 64.39,75.54L64.78,77.08Q64.81,77.23 64.77,77.33Q64.73,77.42 64.61,77.45Q64.49,77.50 64.39,77.47Q64.29,77.44 64.21,77.33Q64.06,77.09 63.94,76.97Q63.81,76.84 63.66,76.80Q63.50,76.75 63.26,76.75ZM59.76,73.28Q59.76,73.15 59.85,73.08Q59.94,73.00 60.12,73.00Q64.12,73.00 64.26,72.95Q64.39,72.91 64.51,72.86Q64.62,72.81 64.77,72.81Q64.96,72.81 65.05,72.92Q65.15,73.02 65.22,73.25L65.63,74.67Q65.68,74.83 65.63,74.92Q65.58,75.03 65.45,75.07Q65.30,75.12 65.18,75.06Q65.06,75.01 64.99,74.86Q64.78,74.47 64.60,74.22Q64.42,73.97 64.24,73.84Q64.06,73.70 63.86,73.65Q63.66,73.60 63.40,73.60Q62.41,79.12 62.56,79.26Q62.70,79.40 62.99,79.40Q63.90,79.40 64.17,79.28Q64.44,79.17 64.69,78.84Q64.93,78.52 65.22,77.90Q65.28,77.77 65.39,77.72Q65.49,77.67 65.62,77.69Q65.77,77.72 65.84,77.82Q65.90,77.93 65.86,78.09L65.41,79.73Q65.34,79.96 65.25,80.07Q65.15,80.18 64.94,80.18Q64.81,80.18 64.70,80.14Q64.58,80.09 64.45,80.05Q64.31,80.00 64.11,80.00Q59.94,80.00 59.85,79.92Q59.76,79.84 59.76,79.72Q59.76,79.50 59.99,79.41L60.23,79.34Q60.36,79.30 60.42,79.23Q60.48,79.16 60.48,79.04Q60.48,73.84 60.42,73.77Q60.36,73.70 60.23,73.66L59.99,73.59Q59.76,73.50 59.76,73.28Z" fill="#fff0f7" fill-rule="nonzero"/>
  <circle cx="50" cy="90" r="3.5" fill="#9a1858"/>
  <circle cx="50" cy="90" r="1.8" fill="#ff8ac2" fill-opacity="0.9"/>
  <!-- Cut line — non-printing -->
  <circle cx="50" cy="50" r="44.85" fill="none" stroke="#ff0000" stroke-width="0.25" stroke-dasharray="1.5,1.5" opacity="0.5"/>
</svg>
