<svg xmlns="http://www.w3.org/2000/svg" width="173.86" height="117.17" viewBox="0 0 173.86 117.17">
  <rect width="173.86" height="117.17" rx="5" fill="#5a20a0"/>
  <rect x="7.56" y="7.56" width="158.74" height="102.05" rx="4" fill="#7838c0" fill-opacity="0.3"/>

  <!-- Stem -->
  <path d="M72 95 Q66 72 58 50" stroke="#4a8820" stroke-width="4.5" fill="none" stroke-linecap="round"/>
  <!-- Leaves -->
  <ellipse cx="40" cy="84" rx="22" ry="9" fill="#4a8820" transform="rotate(-28 40 84)"/>
  <ellipse cx="100" cy="76" rx="18" ry="7.5" fill="#3a7818" transform="rotate(22 100 76)"/>

  <!-- Orchid — 5 petals -->
  <ellipse cx="72" cy="36" rx="15" ry="24" fill="#c058e8" opacity="0.92"/>
  <ellipse cx="72" cy="36" rx="15" ry="24" fill="#c058e8" opacity="0.92" transform="rotate(72 72 36)"/>
  <ellipse cx="72" cy="36" rx="15" ry="24" fill="#aa48d0" opacity="0.92" transform="rotate(144 72 36)"/>
  <ellipse cx="72" cy="36" rx="15" ry="24" fill="#c058e8" opacity="0.92" transform="rotate(216 72 36)"/>
  <ellipse cx="72" cy="36" rx="15" ry="24" fill="#aa48d0" opacity="0.92" transform="rotate(288 72 36)"/>
  <!-- Centre -->
  <circle cx="72" cy="36" r="15" fill="#ffe4f8"/>
  <circle cx="72" cy="36" r="9" fill="#ff80c0"/>
  <ellipse cx="72" cy="43" rx="6" ry="4" fill="#ff58a8"/>

  <!-- Face -->
  <ellipse cx="65" cy="32" rx="5" ry="6" fill="white"/>
  <circle cx="65" cy="33.5" r="3.5" fill="#380858"/>
  <circle cx="67" cy="31" r="1.3" fill="white"/>
  <ellipse cx="79" cy="32" rx="5" ry="6" fill="white"/>
  <circle cx="79" cy="33.5" r="3.5" fill="#380858"/>
  <circle cx="81" cy="31" r="1.3" fill="white"/>
  <path d="M63.5 39.5 Q72 45 80.5 39.5" stroke="#380858" stroke-width="2" fill="none" stroke-linecap="round"/>

  <!-- Sparkles -->
  <line x1="22" y1="22" x2="28" y2="28" stroke="#ffccff" stroke-width="2" stroke-linecap="round"/>
  <line x1="28" y1="22" x2="22" y2="28" stroke="#ffccff" stroke-width="2" stroke-linecap="round"/>
  <line x1="112" y1="16" x2="118" y2="22" stroke="#ffccff" stroke-width="2" stroke-linecap="round"/>
  <line x1="118" y1="16" x2="112" y2="22" stroke="#ffccff" stroke-width="2" stroke-linecap="round"/>
  <circle cx="120" cy="38" r="3" fill="#ffccff"/>
  <circle cx="20" cy="45" r="2.5" fill="#ffccff" fill-opacity="0.8"/>

  <!-- Name right -->
  <text x="143" y="56" text-anchor="middle" font-family="Georgia,'Times New Roman',serif" font-size="14" font-weight="700" fill="white" letter-spacing="0.5">Ollie</text>

  <!-- NFC dot -->
  <circle cx="143" cy="90" r="5" fill="#300660"/>
  <circle cx="143" cy="90" r="3" fill="#d890f8" fill-opacity="0.9"/>
  <path d="M135 82 Q143 75 151 82" stroke="#d890f8" stroke-width="1.5" fill="none" stroke-linecap="round" opacity="0.6"/>
  <path d="M131 78 Q143 68 155 78" stroke="#d890f8" stroke-width="1.2" fill="none" stroke-linecap="round" opacity="0.35"/>
</svg>
