<svg xmlns="http://www.w3.org/2000/svg" width="147.40" height="147.40" viewBox="0 0 147.40 147.40">
  <defs><clipPath id="sc"><circle cx="73.70" cy="73.70" r="73.70"/></clipPath></defs>
  <!-- Brighter pink/magenta — more contrast against dark red stake -->
  <circle cx="73.70" cy="73.70" r="73.70" fill="#e0206a"/>
  <circle cx="73.70" cy="73.70" r="60" fill="#f03070" fill-opacity="0.3"/>

  <!-- Succulent rosette — large, fills circle -->
  <!-- Outer layer -->
  <ellipse cx="73.70" cy="28" rx="46" ry="17" fill="#b01050"/>
  <ellipse cx="73.70" cy="28" rx="46" ry="17" fill="#c01858" transform="rotate(45 73.70 62)"/>
  <ellipse cx="73.70" cy="28" rx="46" ry="17" fill="#980c40" transform="rotate(90 73.70 62)"/>
  <ellipse cx="73.70" cy="28" rx="46" ry="17" fill="#b01050" transform="rotate(135 73.70 62)"/>
  <!-- Mid layer -->
  <ellipse cx="73.70" cy="36" rx="36" ry="13" fill="#e03060" transform="rotate(22.5 73.70 62)"/>
  <ellipse cx="73.70" cy="36" rx="36" ry="13" fill="#d02050" transform="rotate(67.5 73.70 62)"/>
  <ellipse cx="73.70" cy="36" rx="36" ry="13" fill="#e03060" transform="rotate(112.5 73.70 62)"/>
  <ellipse cx="73.70" cy="36" rx="36" ry="13" fill="#d02050" transform="rotate(157.5 73.70 62)"/>
  <!-- Centre rosette -->
  <circle cx="73.70" cy="62" r="27" fill="#f06080"/>
  <circle cx="73.70" cy="62" r="17" fill="#f8a8b8"/>
  <circle cx="73.70" cy="62" r="9" fill="#ffd8e0"/>

  <!-- Face — large and clear -->
  <ellipse cx="63" cy="59" rx="7.5" ry="8.5" fill="white"/>
  <circle cx="63" cy="61" r="5" fill="#420010"/>
  <circle cx="65.5" cy="57.5" r="2" fill="white"/>
  <ellipse cx="84" cy="59" rx="7.5" ry="8.5" fill="white"/>
  <circle cx="84" cy="61" r="5" fill="#420010"/>
  <circle cx="86.5" cy="57.5" r="2" fill="white"/>

  <!-- Heart mouth -->
  <circle cx="69" cy="72" r="3.5" fill="#420010"/>
  <circle cx="78" cy="72" r="3.5" fill="#420010"/>
  <path d="M65 74 Q73.70 83 82 74" stroke="#420010" stroke-width="2.8" fill="none" stroke-linecap="round"/>

  <!-- Blush -->
  <ellipse cx="46" cy="70" rx="11" ry="7" fill="#ff8899" fill-opacity="0.55"/>
  <ellipse cx="101" cy="70" rx="11" ry="7" fill="#ff8899" fill-opacity="0.55"/>

  <text x="73.70" y="122" text-anchor="middle" font-family="Georgia,serif" font-size="16" font-weight="700" fill="white" letter-spacing="1">Suzy</text>
  <circle cx="73.70" cy="137" r="5" fill="#780818"/>
  <circle cx="73.70" cy="137" r="3" fill="#ffaacc" fill-opacity="0.9"/>
</svg>
