<!-- AquaTag print-ready sticker | 35mm round + 2mm bleed
     Canvas: 147.40x147.40px = 39mm at 96dpi
     Fonts: OUTLINED as vector paths (Fraunces Bold 700)
     Seritag Sheet Express | 35mm Round | NTAG213 blank | crystal matt -->
<svg xmlns="http://www.w3.org/2000/svg" width="147.40" height="147.40" viewBox="0 0 100 100">
  <circle cx="50" cy="50" r="50" fill="#c8201e"/>
  <g>
    <circle cx="50" cy="50" r="32" fill="#7e0e0c" fill-opacity="0.35"/>
    <ellipse cx="50" cy="30" rx="22" ry="10" fill="#a0181a"/>
    <ellipse cx="50" cy="30" rx="22" ry="10" fill="#b82028" transform="rotate(45 50 38)"/>
    <ellipse cx="50" cy="30" rx="22" ry="10" fill="#8a1012" transform="rotate(90 50 38)"/>
    <ellipse cx="50" cy="30" rx="22" ry="10" fill="#a0181a" transform="rotate(135 50 38)"/>
    <ellipse cx="50" cy="33" rx="17" ry="8" fill="#d02830" transform="rotate(22.5 50 38)"/>
    <ellipse cx="50" cy="33" rx="17" ry="8" fill="#b82028" transform="rotate(67.5 50 38)"/>
    <ellipse cx="50" cy="33" rx="17" ry="8" fill="#d02830" transform="rotate(112.5 50 38)"/>
    <ellipse cx="50" cy="33" rx="17" ry="8" fill="#b82028" transform="rotate(157.5 50 38)"/>
    <circle cx="50" cy="38" r="13" fill="#e85050"/>
    <circle cx="50" cy="38" r="8" fill="#fba0a0"/>
    <ellipse cx="46.5" cy="36" rx="3" ry="3.5" fill="white"/>
    <circle cx="46.5" cy="37" r="1.9" fill="#3a0606"/>
    <circle cx="47.5" cy="35.5" r="0.7" fill="white"/>
    <ellipse cx="54" cy="36" rx="3" ry="3.5" fill="white"/>
    <circle cx="54" cy="37" r="1.9" fill="#3a0606"/>
    <circle cx="55" cy="35.5" r="0.7" fill="white"/>
    <circle cx="47.5" cy="42" r="1.2" fill="#3a0606"/>
    <circle cx="50.5" cy="42" r="1.2" fill="#3a0606"/>
    <path d="M46.5 43 Q50 46.5 54 43" stroke="#3a0606" stroke-width="1.4" fill="none" stroke-linecap="round"/>
    <ellipse cx="41" cy="42" rx="4" ry="2.5" fill="#ff9090" fill-opacity="0.6"/>
    <ellipse cx="59.5" cy="42" rx="4" ry="2.5" fill="#ff9090" fill-opacity="0.6"/>
  </g>
  <path d="M39.67,80.15Q39.29,80.15 39.02,80.07Q38.75,79.98 38.57,79.90Q38.39,79.81 38.29,79.81Q38.18,79.81 38.10,79.87Q38.02,79.92 37.94,80.00Q37.87,80.06 37.79,80.12Q37.71,80.17 37.60,80.17Q37.48,80.17 37.39,80.10Q37.30,80.02 37.28,79.84L36.96,78.17Q36.95,78.04 37.00,77.95Q37.05,77.86 37.19,77.81Q37.33,77.77 37.44,77.82Q37.55,77.87 37.62,78.03Q37.93,78.61 38.23,78.94Q38.55,79.27 38.87,79.40Q39.20,79.54 39.54,79.54Q40.00,79.54 40.27,79.31Q40.55,79.08 40.55,78.67Q40.55,78.41 40.42,78.20Q40.30,78.00 39.93,77.80Q39.56,77.61 38.84,77.39Q38.08,77.14 37.61,76.82Q37.15,76.50 36.94,76.05Q36.73,75.61 36.73,75.00Q36.73,74.38 37.03,73.89Q37.33,73.41 37.88,73.14Q38.44,72.87 39.18,72.87Q39.61,72.87 39.90,72.95Q40.19,73.03 40.39,73.11Q40.59,73.20 40.72,73.20Q40.84,73.20 40.92,73.11Q41.00,73.03 41.09,72.94Q41.19,72.85 41.34,72.85Q41.47,72.85 41.56,72.94Q41.65,73.02 41.72,73.25L42.18,74.90Q42.22,75.06 42.17,75.18Q42.11,75.30 41.98,75.34Q41.83,75.39 41.72,75.33Q41.62,75.28 41.55,75.14Q41.23,74.52 40.87,74.15Q40.51,73.79 40.14,73.64Q39.77,73.48 39.40,73.48Q38.95,73.48 38.69,73.74Q38.43,74.00 38.43,74.41Q38.43,74.66 38.55,74.88Q38.67,75.09 39.03,75.30Q39.39,75.51 40.08,75.76Q40.86,76.03 41.31,76.36Q41.77,76.67 41.98,77.09Q42.18,77.50 42.18,78.06Q42.18,78.64 41.88,79.11Q41.58,79.58 41.02,79.87Q40.46,80.15 39.67,80.15Z M48.56,76.95Q48.36,73.97 48.26,73.84Q48.17,73.70 47.96,73.65L47.77,73.61Q47.60,73.56 47.53,73.48Q47.46,73.41 47.46,73.28Q47.46,73.16 47.55,73.08Q47.64,73.00 47.80,73.00Q49.80,73.00 49.89,73.08Q49.98,73.16 49.98,73.28Q49.98,73.41 49.90,73.48Q49.82,73.56 49.66,73.61L49.48,73.65Q49.21,73.72 49.12,73.88Q49.03,74.03 49.05,74.27L49.24,76.94Q49.27,77.19 49.28,77.44Q49.29,77.69 49.29,77.97Q49.30,78.60 49.00,79.10Q48.70,79.61 48.08,79.90Q47.46,80.19 46.50,80.19Q45.52,80.19 44.86,79.92Q44.21,79.64 43.88,79.15Q43.56,78.65 43.56,77.98Q43.56,77.88 43.57,77.72Q43.58,77.56 43.59,77.33Q43.60,77.11 43.62,76.78L43.80,73.98Q43.81,73.83 43.74,73.76Q43.68,73.69 43.50,73.66L43.27,73.61Q42.96,73.53 42.96,73.28Q42.96,73.16 43.05,73.08Q43.14,73.00 43.30,73.00Q46.38,73.00 46.46,73.08Q46.55,73.16 46.55,73.28Q46.55,73.41 46.48,73.49Q46.41,73.56 46.24,73.61L46.00,73.66Q45.87,73.68 45.80,73.75Q45.74,73.83 45.73,73.97L45.56,76.79Q45.54,77.12 45.54,77.39Q45.53,77.66 45.53,77.86Q45.52,78.72 45.90,79.11Q46.29,79.50 46.97,79.50Q47.48,79.50 47.84,79.31Q48.21,79.12 48.41,78.78Q48.61,78.44 48.60,77.95Q48.60,77.60 48.58,77.38Q48.57,77.15 48.56,76.95Z M56.15,73.69Q54.41,79.40 54.61,79.35Q54.81,79.31 54.98,79.18Q55.16,79.05 55.31,78.82Q55.46,78.59 55.61,78.23L55.76,77.86Q55.82,77.71 55.93,77.66Q56.04,77.61 56.17,77.64Q56.32,77.67 56.37,77.78Q56.43,77.89 56.39,78.04L56.03,79.73Q55.98,79.95 55.87,80.06Q55.77,80.17 55.56,80.17Q55.45,80.17 55.34,80.12Q55.23,80.08 55.09,80.04Q54.95,80.00 54.74,80.00Q50.50,80.00 50.42,79.92Q50.34,79.84 50.34,79.72Q50.34,79.64 50.38,79.53Q50.41,79.44 50.50,79.31L54.30,73.19L54.51,73.60Q52.34,73.60 52.13,73.68Q51.92,73.77 51.75,73.97Q51.58,74.17 51.41,74.54L51.28,74.84Q51.20,75.00 51.09,75.04Q50.98,75.08 50.87,75.06Q50.73,75.04 50.66,74.94Q50.59,74.84 50.62,74.67L50.88,73.26Q50.93,73.03 51.04,72.92Q51.15,72.82 51.34,72.82Q51.46,72.82 51.57,72.86Q51.69,72.91 51.83,72.95Q51.97,73.00 52.16,73.00Q56.14,73.00 56.23,73.07Q56.32,73.14 56.32,73.28Q56.32,73.36 56.27,73.46Q56.23,73.56 56.15,73.69Z M61.09,77.80Q57.42,73.81 57.35,73.74Q57.28,73.67 57.17,73.62L57.02,73.57Q56.91,73.53 56.86,73.45Q56.81,73.38 56.81,73.28Q56.81,73.15 56.90,73.08Q56.99,73.00 57.18,73.00Q59.98,73.00 60.07,73.08Q60.17,73.15 60.17,73.28Q60.17,73.52 59.92,73.58L59.73,73.63Q59.56,73.68 59.53,73.77Q59.50,73.86 59.59,74.06L61.06,77.30L60.43,77.61L62.03,74.28Q62.14,74.06 62.09,73.88Q62.04,73.71 61.79,73.62L61.61,73.57Q61.52,73.53 61.47,73.46Q61.41,73.39 61.41,73.28Q61.41,73.15 61.50,73.08Q61.59,73.00 61.78,73.00Q63.44,73.00 63.52,73.08Q63.61,73.15 63.61,73.28Q63.61,73.38 63.57,73.44Q63.52,73.51 63.42,73.56L63.34,73.61Q63.24,73.64 63.15,73.72Q63.07,73.80 62.97,73.94Q62.88,74.08 62.75,74.35ZM59.32,77.42Q61.25,79.16 61.31,79.23Q61.38,79.30 61.50,79.34L61.74,79.41Q61.97,79.50 61.97,79.72Q61.97,79.84 61.88,79.92Q61.80,80.00 61.61,80.00Q58.77,80.00 58.68,79.92Q58.59,79.84 58.59,79.72Q58.59,79.50 58.83,79.41L59.06,79.34Q59.19,79.30 59.25,79.23Q59.32,79.16 59.32,79.04Z" fill="#fff0ee" fill-rule="nonzero"/>
  <circle cx="50" cy="90" r="3.5" fill="#7e0e0c"/>
  <circle cx="50" cy="90" r="1.8" fill="#f06a68" fill-opacity="0.9"/>
  <!-- Cut line — non-printing -->
  <circle cx="50" cy="50" r="44.85" fill="none" stroke="#ff0000" stroke-width="0.25" stroke-dasharray="1.5,1.5" opacity="0.5"/>
</svg>
