<svg xmlns="http://www.w3.org/2000/svg" width="173.86" height="117.17" viewBox="0 0 173.86 117.17">
  <rect width="173.86" height="117.17" rx="5" fill="#c01848"/>
  <rect x="7.56" y="7.56" width="158.74" height="102.05" rx="4" fill="#d82858" fill-opacity="0.3"/>

  <!-- Succulent rosette — compact layered petals -->
  <!-- Outer 4 -->
  <ellipse cx="72" cy="26" rx="38" ry="14" fill="#9a1038"/>
  <ellipse cx="72" cy="26" rx="38" ry="14" fill="#aa1840" transform="rotate(45 72 52)"/>
  <ellipse cx="72" cy="26" rx="38" ry="14" fill="#880e30" transform="rotate(90 72 52)"/>
  <ellipse cx="72" cy="26" rx="38" ry="14" fill="#9a1038" transform="rotate(135 72 52)"/>
  <!-- Mid 4 -->
  <ellipse cx="72" cy="32" rx="30" ry="11" fill="#cc2050" transform="rotate(22.5 72 52)"/>
  <ellipse cx="72" cy="32" rx="30" ry="11" fill="#bb1844" transform="rotate(67.5 72 52)"/>
  <ellipse cx="72" cy="32" rx="30" ry="11" fill="#cc2050" transform="rotate(112.5 72 52)"/>
  <ellipse cx="72" cy="32" rx="30" ry="11" fill="#bb1844" transform="rotate(157.5 72 52)"/>
  <!-- Centre -->
  <circle cx="72" cy="52" r="22" fill="#ee5070"/>
  <circle cx="72" cy="52" r="14" fill="#f8a8b4"/>
  <circle cx="72" cy="52" r="7" fill="#ffd8de"/>

  <!-- Face -->
  <ellipse cx="63" cy="49" rx="6" ry="7" fill="white"/>
  <circle cx="63" cy="50.5" r="4" fill="#420010"/>
  <circle cx="65" cy="47.5" r="1.5" fill="white"/>
  <ellipse cx="81" cy="49" rx="6" ry="7" fill="white"/>
  <circle cx="81" cy="50.5" r="4" fill="#420010"/>
  <circle cx="83" cy="47.5" r="1.5" fill="white"/>

  <!-- Heart mouth -->
  <circle cx="68.5" cy="58" r="2.5" fill="#420010"/>
  <circle cx="75.5" cy="58" r="2.5" fill="#420010"/>
  <path d="M65 60 Q72 67 79 60" stroke="#420010" stroke-width="2.2" fill="none" stroke-linecap="round"/>

  <!-- Blush -->
  <ellipse cx="50" cy="58" rx="8" ry="5" fill="#ff8899" fill-opacity="0.5"/>
  <ellipse cx="94" cy="58" rx="8" ry="5" fill="#ff8899" fill-opacity="0.5"/>

  <!-- Name right -->
  <text x="143" y="56" text-anchor="middle" font-family="Georgia,'Times New Roman',serif" font-size="14" font-weight="700" fill="white" letter-spacing="0.5">Suzy</text>

  <!-- NFC dot -->
  <circle cx="143" cy="90" r="5" fill="#680818"/>
  <circle cx="143" cy="90" r="3" fill="#ffaabb" fill-opacity="0.9"/>
  <path d="M135 82 Q143 75 151 82" stroke="#ffaabb" stroke-width="1.5" fill="none" stroke-linecap="round" opacity="0.6"/>
  <path d="M131 78 Q143 68 155 78" stroke="#ffaabb" stroke-width="1.2" fill="none" stroke-linecap="round" opacity="0.35"/>
</svg>
