<!-- AquaTag print-ready sticker | 35mm round + 2mm bleed
     Canvas: 147.40x147.40px = 39mm at 96dpi
     Fonts: OUTLINED as vector paths (Fraunces Bold 700)
     Seritag Sheet Express | 35mm Round | NTAG213 blank | crystal matt -->
<svg xmlns="http://www.w3.org/2000/svg" width="147.40" height="147.40" viewBox="0 0 100 100">
  <circle cx="50" cy="50" r="50" fill="#1e6aa8"/>
  <g>
    <circle cx="50" cy="50" r="32" fill="#0e4a7e" fill-opacity="0.3"/>
    <path d="M50 62 Q33 49 22 34" stroke="#6fc97a" stroke-width="2.4" fill="none" stroke-linecap="round"/>
    <ellipse cx="27" cy="41" rx="8" ry="4" fill="#6fc97a" transform="rotate(-50 27 41)"/>
    <ellipse cx="34" cy="51" rx="7" ry="3.5" fill="#8bd890" transform="rotate(-40 34 51)"/>
    <ellipse cx="41" cy="58" rx="6" ry="3" fill="#6fc97a" transform="rotate(-30 41 58)"/>
    <path d="M50 62 Q67 49 78 34" stroke="#6fc97a" stroke-width="2.4" fill="none" stroke-linecap="round"/>
    <ellipse cx="73" cy="41" rx="8" ry="4" fill="#8bd890" transform="rotate(50 73 41)"/>
    <ellipse cx="66" cy="51" rx="7" ry="3.5" fill="#6fc97a" transform="rotate(40 66 51)"/>
    <ellipse cx="59" cy="58" rx="6" ry="3" fill="#8bd890" transform="rotate(30 59 58)"/>
    <path d="M50 62 Q50 44 50 20" stroke="#6fc97a" stroke-width="2.4" fill="none" stroke-linecap="round"/>
    <ellipse cx="43" cy="30" rx="7" ry="3" fill="#6fc97a" transform="rotate(-20 43 30)"/>
    <ellipse cx="57" cy="30" rx="7" ry="3" fill="#8bd890" transform="rotate(20 57 30)"/>
    <ellipse cx="43" cy="40" rx="6" ry="2.5" fill="#8bd890" transform="rotate(-15 43 40)"/>
    <ellipse cx="57" cy="40" rx="6" ry="2.5" fill="#6fc97a" transform="rotate(15 57 40)"/>
    <ellipse cx="46.5" cy="19" rx="3.5" ry="4" fill="white"/>
    <circle cx="46.5" cy="20" r="2.2" fill="#0a2a4a"/>
    <ellipse cx="54" cy="19" rx="3.5" ry="4" fill="white"/>
    <circle cx="54" cy="20" r="2.2" fill="#0a2a4a"/>
    <path d="M45 24 Q50 28 55 24" stroke="#0a2a4a" stroke-width="1.5" fill="none" stroke-linecap="round"/>
  </g>
  <path d="M34.55,73.00Q34.76,73.00 34.90,72.96Q35.05,72.92 35.16,72.87Q35.27,72.83 35.39,72.83Q35.59,72.83 35.69,72.93Q35.78,73.03 35.85,73.25L36.27,74.76Q36.31,74.89 36.24,74.98Q36.16,75.08 36.02,75.09Q35.91,75.11 35.80,75.07Q35.69,75.03 35.62,74.89Q35.36,74.35 35.12,74.08Q34.89,73.80 34.63,73.70Q34.38,73.60 34.05,73.60Q33.24,79.16 33.30,79.24Q33.36,79.32 33.49,79.34L33.87,79.41Q34.01,79.44 34.07,79.51Q34.13,79.58 34.13,79.72Q34.13,79.84 34.04,79.92Q33.95,80.00 33.77,80.00Q30.77,80.00 30.68,79.92Q30.59,79.84 30.59,79.72Q30.59,79.50 30.82,79.41L31.06,79.34Q31.19,79.30 31.25,79.23Q31.31,79.16 31.31,79.04Q31.31,73.84 31.25,73.77Q31.19,73.70 31.06,73.66L30.82,73.59Q30.59,73.50 30.59,73.28Q30.59,73.15 30.68,73.08Q30.77,73.00 30.95,73.00ZM32.52,76.36Q34.31,76.36 34.45,76.23Q34.58,76.11 34.68,75.74Q34.72,75.61 34.80,75.56Q34.87,75.50 34.97,75.50Q35.22,75.49 35.27,75.73L35.66,77.28Q35.70,77.44 35.65,77.52Q35.60,77.61 35.49,77.64Q35.38,77.69 35.27,77.65Q35.16,77.61 35.08,77.48Q34.94,77.28 34.81,77.16Q34.70,77.04 34.54,77.00Q34.38,76.95 34.14,76.95Z M38.84,76.17Q40.59,76.17 40.72,76.05Q40.86,75.92 40.94,75.57Q40.98,75.42 41.06,75.36Q41.14,75.30 41.24,75.29Q41.47,75.28 41.53,75.54L41.92,77.08Q41.95,77.23 41.91,77.33Q41.88,77.42 41.76,77.45Q41.64,77.50 41.53,77.47Q41.43,77.44 41.36,77.33Q41.20,77.09 41.08,76.97Q40.95,76.84 40.80,76.80Q40.65,76.75 40.41,76.75ZM36.90,73.28Q36.90,73.15 36.99,73.08Q37.08,73.00 37.27,73.00Q41.27,73.00 41.40,72.95Q41.53,72.91 41.65,72.86Q41.77,72.81 41.91,72.81Q42.10,72.81 42.20,72.92Q42.29,73.02 42.36,73.25L42.78,74.67Q42.82,74.83 42.77,74.92Q42.73,75.03 42.59,75.07Q42.45,75.12 42.33,75.06Q42.20,75.01 42.13,74.86Q41.93,74.47 41.75,74.22Q41.57,73.97 41.39,73.84Q41.20,73.70 41.00,73.65Q40.80,73.60 40.54,73.60Q39.55,79.12 39.70,79.26Q39.84,79.40 40.13,79.40Q41.05,79.40 41.31,79.28Q41.58,79.17 41.83,78.84Q42.08,78.52 42.36,77.90Q42.43,77.77 42.53,77.72Q42.64,77.67 42.77,77.69Q42.91,77.72 42.98,77.82Q43.05,77.93 43.00,78.09L42.55,79.73Q42.48,79.96 42.39,80.07Q42.29,80.18 42.09,80.18Q41.95,80.18 41.84,80.14Q41.73,80.09 41.59,80.05Q41.45,80.00 41.26,80.00Q37.08,80.00 36.99,79.92Q36.90,79.84 36.90,79.72Q36.90,79.50 37.14,79.41L37.38,79.34Q37.50,79.30 37.56,79.23Q37.62,79.16 37.62,79.04Q37.62,73.84 37.56,73.77Q37.50,73.70 37.38,73.66L37.14,73.59Q36.90,73.50 36.90,73.28Z M50.36,75.43Q50.36,75.90 50.14,76.28Q49.93,76.67 49.53,76.93Q49.13,77.19 48.58,77.30Q48.35,77.34 48.15,77.39Q47.96,77.44 47.76,77.47Q47.57,77.51 47.32,77.51Q47.01,77.51 46.74,77.47Q46.47,77.42 46.24,77.34Q46.02,77.27 45.85,77.16L45.87,76.62Q46.01,76.72 46.17,76.79Q46.34,76.86 46.54,76.89Q46.74,76.92 46.98,76.92Q47.64,76.92 48.01,76.56Q48.38,76.20 48.38,75.47Q48.38,74.91 48.15,74.48Q47.93,74.05 47.54,73.80Q47.15,73.55 46.63,73.55Q46.31,79.16 46.36,79.23Q46.41,79.30 46.53,79.34L46.77,79.41Q46.91,79.47 46.95,79.54Q47.00,79.61 47.00,79.72Q47.00,80.00 46.64,80.00Q43.83,80.00 43.74,79.92Q43.66,79.84 43.66,79.72Q43.66,79.50 43.89,79.41L44.13,79.34Q44.26,79.30 44.32,79.23Q44.38,79.16 44.38,79.03Q44.38,73.84 44.32,73.77Q44.26,73.70 44.13,73.66L43.89,73.59Q43.66,73.50 43.66,73.28Q43.66,73.15 43.74,73.08Q43.83,73.00 44.02,73.00Q47.88,73.00 48.70,73.31Q49.51,73.62 49.93,74.17Q50.36,74.72 50.36,75.43ZM47.19,77.28Q50.37,79.20 50.45,79.28Q50.54,79.36 50.68,79.42Q50.82,79.47 50.87,79.54Q50.93,79.61 50.93,79.72Q50.93,79.84 50.84,79.92Q50.75,80.00 50.56,80.00Q47.91,80.00 47.91,79.72Q47.91,79.65 47.94,79.59Q47.97,79.54 48.05,79.50L48.16,79.45Q48.25,79.39 48.27,79.33Q48.28,79.26 48.21,79.14Z M53.80,79.72Q53.80,79.84 53.71,79.92Q53.63,80.00 53.44,80.00Q51.64,80.00 51.55,79.92Q51.46,79.84 51.46,79.72Q51.46,79.50 51.72,79.40L51.89,79.34Q52.12,79.25 52.21,79.12Q52.30,79.00 52.30,78.74Q52.30,74.52 52.26,74.42Q52.22,74.31 52.09,74.14L51.68,73.61Q51.59,73.48 51.55,73.41Q51.52,73.34 51.52,73.26Q51.52,73.14 51.60,73.07Q51.69,73.00 51.83,73.00Q53.42,73.00 53.53,73.06Q53.65,73.12 53.76,73.28L57.32,78.14L57.05,78.87Q57.05,74.00 56.97,73.88Q56.89,73.76 56.65,73.66L56.48,73.60Q56.22,73.48 56.22,73.28Q56.22,73.15 56.31,73.08Q56.40,73.00 56.58,73.00Q58.38,73.00 58.47,73.08Q58.56,73.15 58.56,73.28Q58.56,73.49 58.31,73.60L58.14,73.66Q57.91,73.75 57.82,73.87Q57.73,74.00 57.73,74.26Q57.73,78.56 57.76,78.69Q57.79,78.82 57.87,78.93L58.18,79.35Q58.29,79.50 58.31,79.57Q58.34,79.64 58.34,79.72Q58.34,79.85 58.25,79.92Q58.17,80.00 58.02,80.00Q56.09,80.00 56.09,79.78Q56.09,79.69 56.06,79.61Q56.02,79.53 55.87,79.32L52.38,74.55L52.97,74.17Q52.97,78.99 53.05,79.11Q53.14,79.23 53.38,79.34L53.55,79.40Q53.80,79.51 53.80,79.72Z M61.94,79.04Q61.94,79.16 62.00,79.23Q62.07,79.30 62.19,79.34L62.43,79.41Q62.66,79.50 62.66,79.72Q62.66,79.84 62.57,79.92Q62.49,80.00 62.30,80.00Q59.46,80.00 59.37,79.92Q59.28,79.84 59.28,79.72Q59.28,79.50 59.51,79.41L59.75,79.34Q59.88,79.30 59.94,79.23Q60.01,79.16 60.01,79.04Q60.01,73.84 59.94,73.77Q59.88,73.70 59.75,73.66L59.51,73.59Q59.28,73.50 59.28,73.28Q59.28,73.15 59.37,73.08Q59.46,73.00 59.64,73.00Q62.49,73.00 62.57,73.08Q62.66,73.15 62.66,73.28Q62.66,73.50 62.43,73.59L62.19,73.66Q62.07,73.70 62.00,73.77Q61.94,73.84 61.94,73.96Z M65.56,76.17Q67.31,76.17 67.44,76.05Q67.58,75.92 67.66,75.57Q67.70,75.42 67.78,75.36Q67.86,75.30 67.96,75.29Q68.19,75.28 68.25,75.54L68.64,77.08Q68.67,77.23 68.64,77.33Q68.59,77.42 68.47,77.45Q68.36,77.50 68.25,77.47Q68.15,77.44 68.08,77.33Q67.92,77.09 67.80,76.97Q67.67,76.84 67.52,76.80Q67.36,76.75 67.12,76.75ZM63.62,73.28Q63.62,73.15 63.71,73.08Q63.80,73.00 63.98,73.00Q67.98,73.00 68.12,72.95Q68.25,72.91 68.37,72.86Q68.48,72.81 68.64,72.81Q68.82,72.81 68.92,72.92Q69.01,73.02 69.08,73.25L69.50,74.67Q69.54,74.83 69.49,74.92Q69.44,75.03 69.31,75.07Q69.17,75.12 69.05,75.06Q68.92,75.01 68.85,74.86Q68.64,74.47 68.47,74.22Q68.28,73.97 68.11,73.84Q67.92,73.70 67.72,73.65Q67.52,73.60 67.26,73.60Q66.28,79.12 66.42,79.26Q66.56,79.40 66.85,79.40Q67.77,79.40 68.03,79.28Q68.30,79.17 68.55,78.84Q68.80,78.52 69.08,77.90Q69.14,77.77 69.25,77.72Q69.36,77.67 69.48,77.69Q69.64,77.72 69.70,77.82Q69.77,77.93 69.72,78.09L69.28,79.73Q69.20,79.96 69.11,80.07Q69.01,80.18 68.81,80.18Q68.67,80.18 68.56,80.14Q68.44,80.09 68.31,80.05Q68.17,80.00 67.97,80.00Q63.80,80.00 63.71,79.92Q63.62,79.84 63.62,79.72Q63.62,79.50 63.86,79.41L64.09,79.34Q64.22,79.30 64.28,79.23Q64.34,79.16 64.34,79.04Q64.34,73.84 64.28,73.77Q64.22,73.70 64.09,73.66L63.86,73.59Q63.62,73.50 63.62,73.28Z" fill="#eaf4ff" fill-rule="nonzero"/>
  <circle cx="50" cy="90" r="3.5" fill="#0e4a7e"/>
  <circle cx="50" cy="90" r="1.8" fill="#6aa8d6" fill-opacity="0.9"/>
  <!-- Cut line — non-printing -->
  <circle cx="50" cy="50" r="44.85" fill="none" stroke="#ff0000" stroke-width="0.25" stroke-dasharray="1.5,1.5" opacity="0.5"/>
</svg>
