<!-- AquaTag print-ready sticker | 35mm round + 2mm bleed
     Canvas: 147.40x147.40px = 39mm at 96dpi
     Fonts: OUTLINED as vector paths (Fraunces Bold 700)
     Seritag Sheet Express | 35mm Round | NTAG213 blank | crystal matt -->
<svg xmlns="http://www.w3.org/2000/svg" width="147.40" height="147.40" viewBox="0 0 100 100">
  <circle cx="50" cy="50" r="50" fill="#f5f2ea"/>
  <g>
    <circle cx="50" cy="50" r="34" fill="#1d2a1b" fill-opacity="0.05"/>
    <circle cx="32" cy="32" r="9" fill="#2e6b35" stroke="#1d2a1b" stroke-width="1"/>
    <circle cx="68" cy="30" r="8" fill="#3a8043" stroke="#1d2a1b" stroke-width="1"/>
    <circle cx="26" cy="50" r="7" fill="#3a8043" stroke="#1d2a1b" stroke-width="1"/>
    <circle cx="74" cy="52" r="7" fill="#2e6b35" stroke="#1d2a1b" stroke-width="1"/>
    <circle cx="32" cy="32" r="1.2" fill="#1d2a1b"/>
    <circle cx="68" cy="30" r="1.2" fill="#1d2a1b"/>
    <circle cx="26" cy="50" r="1" fill="#1d2a1b"/>
    <circle cx="74" cy="52" r="1" fill="#1d2a1b"/>
    <line x1="32" y1="32" x2="50" y2="50" stroke="#1d2a1b" stroke-width="1.3"/>
    <line x1="68" y1="30" x2="50" y2="50" stroke="#1d2a1b" stroke-width="1.3"/>
    <line x1="26" y1="50" x2="50" y2="50" stroke="#1d2a1b" stroke-width="1.3"/>
    <line x1="74" y1="52" x2="50" y2="50" stroke="#1d2a1b" stroke-width="1.3"/>
    <circle cx="50" cy="52" r="14" fill="#4a9550" stroke="#1d2a1b" stroke-width="1.2"/>
    <circle cx="50" cy="52" r="1.4" fill="#1d2a1b"/>
    <ellipse cx="45" cy="49" rx="2" ry="2.4" fill="white"/>
    <circle cx="45" cy="49.5" r="1.3" fill="#0d1810"/>
    <ellipse cx="55" cy="49" rx="2" ry="2.4" fill="white"/>
    <circle cx="55" cy="49.5" r="1.3" fill="#0d1810"/>
    <path d="M45 55 Q50 58 55 55" stroke="#0d1810" stroke-width="1.3" fill="none" stroke-linecap="round"/>
    <ellipse cx="42" cy="54" rx="1.8" ry="1.2" fill="#ff9090" fill-opacity="0.55"/>
    <ellipse cx="58" cy="54" rx="1.8" ry="1.2" fill="#ff9090" fill-opacity="0.55"/>
  </g>
  <path d="M47.55,75.59Q47.55,76.25 47.21,76.72Q46.87,77.20 46.24,77.47Q45.61,77.73 44.74,77.73Q44.16,77.73 43.71,77.61Q43.25,77.48 42.90,77.26L42.97,76.73Q43.16,76.86 43.34,76.95Q43.54,77.03 43.75,77.08Q43.97,77.11 44.20,77.11Q44.62,77.11 44.95,76.94Q45.29,76.76 45.48,76.41Q45.67,76.06 45.67,75.54Q45.67,74.94 45.45,74.50Q45.23,74.07 44.83,73.83Q44.44,73.59 43.91,73.59Q43.65,79.16 43.71,79.24Q43.77,79.32 43.91,79.34L44.27,79.41Q44.41,79.44 44.48,79.51Q44.54,79.58 44.54,79.72Q44.54,79.84 44.45,79.92Q44.36,80.00 44.17,80.00Q41.17,80.00 41.09,79.92Q40.99,79.84 40.99,79.72Q40.99,79.50 41.23,79.41L41.47,79.34Q41.59,79.30 41.66,79.23Q41.72,79.16 41.72,79.04Q41.72,73.84 41.66,73.77Q41.59,73.70 41.47,73.66L41.23,73.59Q40.99,73.50 40.99,73.28Q40.99,73.15 41.09,73.08Q41.17,73.00 41.36,73.00Q45.11,73.00 45.91,73.33Q46.71,73.67 47.13,74.25Q47.55,74.83 47.55,75.59Z M50.96,79.04Q50.96,79.16 51.03,79.23Q51.09,79.30 51.21,79.34L51.45,79.41Q51.69,79.50 51.69,79.72Q51.69,79.84 51.60,79.92Q51.52,80.00 51.32,80.00Q48.48,80.00 48.40,79.92Q48.31,79.84 48.31,79.72Q48.31,79.50 48.54,79.41L48.78,79.34Q48.91,79.30 48.97,79.23Q49.03,79.16 49.03,79.04Q49.03,73.84 48.97,73.77Q48.91,73.70 48.78,73.66L48.54,73.59Q48.31,73.50 48.31,73.28Q48.31,73.15 48.40,73.08Q48.48,73.00 48.67,73.00Q51.52,73.00 51.60,73.08Q51.69,73.15 51.69,73.28Q51.69,73.50 51.45,73.59L51.21,73.66Q51.09,73.70 51.03,73.77Q50.96,73.84 50.96,73.96Z M59.20,75.59Q59.20,76.25 58.87,76.72Q58.53,77.20 57.89,77.47Q57.26,77.73 56.40,77.73Q55.82,77.73 55.36,77.61Q54.91,77.48 54.55,77.26L54.62,76.73Q54.81,76.86 55.00,76.95Q55.19,77.03 55.41,77.08Q55.62,77.11 55.86,77.11Q56.28,77.11 56.61,76.94Q56.94,76.76 57.14,76.41Q57.33,76.06 57.33,75.54Q57.33,74.94 57.11,74.50Q56.88,74.07 56.48,73.83Q56.09,73.59 55.57,73.59Q55.30,79.16 55.37,79.24Q55.43,79.32 55.56,79.34L55.93,79.41Q56.07,79.44 56.13,79.51Q56.19,79.58 56.19,79.72Q56.19,79.84 56.10,79.92Q56.02,80.00 55.83,80.00Q52.83,80.00 52.74,79.92Q52.65,79.84 52.65,79.72Q52.65,79.50 52.89,79.41L53.12,79.34Q53.25,79.30 53.31,79.23Q53.38,79.16 53.38,79.04Q53.38,73.84 53.31,73.77Q53.25,73.70 53.12,73.66L52.89,73.59Q52.65,73.50 52.65,73.28Q52.65,73.15 52.74,73.08Q52.83,73.00 53.01,73.00Q56.76,73.00 57.56,73.33Q58.37,73.67 58.79,74.25Q59.20,74.83 59.20,75.59Z" fill="#1d2a1b" fill-rule="nonzero"/>
  <circle cx="50" cy="90" r="3.5" fill="#6a7360"/>
  <circle cx="50" cy="90" r="1.8" fill="#c8cfbc" fill-opacity="0.9"/>
  <!-- Cut line — non-printing -->
  <circle cx="50" cy="50" r="44.85" fill="none" stroke="#ff0000" stroke-width="0.25" stroke-dasharray="1.5,1.5" opacity="0.5"/>
</svg>
