<svg xmlns="http://www.w3.org/2000/svg" width="94.49" height="94.49" viewBox="0 0 94.49 94.49">
  <circle cx="47.24" cy="47.24" r="47.24" fill="#e8a020"></circle>
  <circle cx="47.24" cy="47.24" r="30" fill="#d49010" fill-opacity="0.3"></circle>
  <rect x="33" y="24" width="29" height="40" rx="14" fill="#4aa832"></rect>
  <rect x="14" y="32" width="21" height="12" rx="6" fill="#4aa832"></rect>
  <rect x="14" y="26" width="14" height="16" rx="7" fill="#4aa832"></rect>
  <rect x="59" y="37" width="21" height="12" rx="6" fill="#4aa832"></rect>
  <rect x="65" y="31" width="14" height="16" rx="7" fill="#4aa832"></rect>
  <circle cx="47.24" cy="23" r="5.5" fill="#ff6b9d"></circle>
  <circle cx="40" cy="21" r="4" fill="#ff6b9d"></circle>
  <circle cx="54.5" cy="21" r="4" fill="#ff6b9d"></circle>
  <circle cx="47.24" cy="23" r="3.5" fill="#ffe066"></circle>
  <ellipse cx="40.5" cy="40" rx="4" ry="4.5" fill="white"></ellipse><circle cx="40.5" cy="41" r="2.5" fill="#1a2a0a"></circle>
  <ellipse cx="54" cy="40" rx="4" ry="4.5" fill="white"></ellipse><circle cx="54" cy="41" r="2.5" fill="#1a2a0a"></circle>
  <path d="M41 50 Q47.24 55 53 52" stroke="#1a2a0a" stroke-width="1.8" fill="none" stroke-linecap="round"></path>
</svg>