<svg xmlns="http://www.w3.org/2000/svg" width="94.49" height="94.49" viewBox="0 0 100 100">
  <circle cx="50" cy="50" r="50" fill="#f5f2ea"></circle>
  <circle cx="50" cy="50" r="34" fill="#1d2a1b" fill-opacity="0.05"></circle>
  <circle cx="32" cy="32" r="9" fill="#2e6b35" stroke="#1d2a1b" stroke-width="1"></circle>
  <circle cx="68" cy="30" r="8" fill="#3a8043" stroke="#1d2a1b" stroke-width="1"></circle>
  <circle cx="26" cy="50" r="7" fill="#3a8043" stroke="#1d2a1b" stroke-width="1"></circle>
  <circle cx="74" cy="52" r="7" fill="#2e6b35" stroke="#1d2a1b" stroke-width="1"></circle>
  <circle cx="32" cy="32" r="1.2" fill="#1d2a1b"></circle>
  <circle cx="68" cy="30" r="1.2" fill="#1d2a1b"></circle>
  <circle cx="26" cy="50" r="1" fill="#1d2a1b"></circle>
  <circle cx="74" cy="52" r="1" fill="#1d2a1b"></circle>
  <line x1="32" y1="32" x2="50" y2="50" stroke="#1d2a1b" stroke-width="1.3"></line>
  <line x1="68" y1="30" x2="50" y2="50" stroke="#1d2a1b" stroke-width="1.3"></line>
  <line x1="26" y1="50" x2="50" y2="50" stroke="#1d2a1b" stroke-width="1.3"></line>
  <line x1="74" y1="52" x2="50" y2="50" stroke="#1d2a1b" stroke-width="1.3"></line>
  <circle cx="50" cy="52" r="14" fill="#4a9550" stroke="#1d2a1b" stroke-width="1.2"></circle>
  <circle cx="50" cy="52" r="1.4" fill="#1d2a1b"></circle>
  <ellipse cx="45" cy="49" rx="2" ry="2.4" fill="white"></ellipse>
  <circle cx="45" cy="49.5" r="1.3" fill="#0d1810"></circle>
  <ellipse cx="55" cy="49" rx="2" ry="2.4" fill="white"></ellipse>
  <circle cx="55" cy="49.5" r="1.3" fill="#0d1810"></circle>
  <path d="M45 55 Q50 58 55 55" stroke="#0d1810" stroke-width="1.3" fill="none" stroke-linecap="round"></path>
  <ellipse cx="42" cy="54" rx="1.8" ry="1.2" fill="#ff9090" fill-opacity="0.55"></ellipse>
  <ellipse cx="58" cy="54" rx="1.8" ry="1.2" fill="#ff9090" fill-opacity="0.55"></ellipse>
  <circle cx="50" cy="50" r="49" fill="none" stroke="#1d2a1b" stroke-width="1" stroke-opacity="0.15"></circle>
</svg>